# xmcd
# Track frame offsets:
# 150
# 20611
# 35127
#
# Disc length: 701 seconds
# Revision: 0
# Processed by: cddbd v1.5.1PL2 Copyright (c) Steve Scherf et al.
# Submitted via: VisiTrax 2.10.0.244 - For more info visit www.synapsa.com
#
DISCID=2102bb03
DTITLE=Jose' Duddy - One Small Step
DYEAR=2006
DGENRE=
TTITLE0=One Small Step
TTITLE1=Where's Our Song
TTITLE2=Mexico
EXTD=
EXTT0=
EXTT1=
EXTT2=
PLAYORDER=
